<?xml version="1.0" encoding="iso-8859-1"?>
<!-- Uploaded to: SVG Repo, www.svgrepo.com, Generator: SVG Repo Mixer Tools -->
<svg height="800px" width="800px" version="1.1" id="Layer_1" xmlns="http://www.w3.org/2000/svg" xmlns:xlink="http://www.w3.org/1999/xlink" 
	 viewBox="0 0 512 512" xml:space="preserve">
<path style="fill:#2D2D2D;" d="M87.976,512h256c8.448,0,15.36-6.912,15.36-15.36V276.264l-15.36,15.064v159.48h-256v-409.6h256
	v62.968l15.36,15.064V15.36c0-8.448-6.912-15.36-15.36-15.36h-256c-8.448,0-15.36,6.912-15.36,15.36v481.28
	C72.616,505.088,79.528,512,87.976,512z M185.256,471.04h61.44c2.816,0,5.12,2.304,5.12,5.12s-2.304,5.12-5.12,5.12h-61.44
	c-2.816,0-5.12-2.304-5.12-5.12S182.44,471.04,185.256,471.04z M264.528,15.52c2.832,0,5.128,2.296,5.128,5.128
	s-2.296,5.128-5.128,5.128s-5.128-2.296-5.128-5.128S261.696,15.52,264.528,15.52z M246.904,15.52c2.832,0,5.128,2.296,5.128,5.128
	s-2.296,5.128-5.128,5.128s-5.128-2.296-5.128-5.128S244.072,15.52,246.904,15.52z M167.416,15.52h45.44
	c2.816,0,5.12,2.304,5.12,5.12s-2.304,5.12-5.12,5.12h-45.44c-2.816,0-5.12-2.304-5.12-5.12S164.6,15.52,167.416,15.52z"/>
<g>
	<path style="fill:#C9C9C9;" d="M185.256,481.28h61.44c2.816,0,5.12-2.304,5.12-5.12s-2.304-5.12-5.12-5.12h-61.44
		c-2.816,0-5.12,2.304-5.12,5.12S182.44,481.28,185.256,481.28z"/>
	<path style="fill:#C9C9C9;" d="M167.416,25.76h45.44c2.816,0,5.12-2.304,5.12-5.12s-2.304-5.12-5.12-5.12h-45.44
		c-2.816,0-5.12,2.304-5.12,5.12S164.6,25.76,167.416,25.76z"/>
	<circle style="fill:#C9C9C9;" cx="246.904" cy="20.648" r="5.128"/>
	<circle style="fill:#C9C9C9;" cx="264.536" cy="20.648" r="5.128"/>
</g>
<path style="fill:#8AD5DD;" d="M278.912,281.096l57.952-56.84h-139.84V171.24h139.84l-57.952-56.84l36.912-37.832l28.152,27.608
	V41.208h-256v409.6h256v-159.48l-28.144,27.608L278.912,281.096z M270.32,349.928h-88.304l36.592,35.888l-23.312,23.888
	l-78.024-76.52l78.024-76.52l23.312,23.888l-36.592,35.888h88.304V349.928z"/>
<polygon style="fill:#DB2B42;" points="315.832,76.568 278.912,114.408 336.864,171.24 197.024,171.24 197.024,224.256 
	336.864,224.256 278.912,281.096 315.832,318.936 343.976,291.328 359.336,276.264 439.384,197.752 359.336,119.24 343.976,104.176 
	"/>
<polygon style="fill:#FFFFFF;" points="218.608,280.552 195.296,256.664 117.28,333.184 195.296,409.704 218.608,385.816 
	182.016,349.928 270.32,349.928 270.32,316.448 182.016,316.448 "/>
</svg>